<svg width="11" height="15" viewBox="0 0 11 15" fill="none" xmlns="http://www.w3.org/2000/svg">
<path d="M7.1432 6.78112C8.39975 6.2013 9.26979 4.98264 9.26979 3.57161C9.26979 1.60198 7.57877 0 5.5 0C3.42123 0 1.73021 1.60198 1.73021 3.57161C1.73021 4.98264 2.60031 6.20136 3.8568 6.78112C1.96213 7.37755 0.554765 8.97725 0.361084 10.9655L0.0013423 14.6631C-0.00693136 14.7492 0.023297 14.8355 0.0849911 14.8993C0.146685 14.9632 0.234177 15 0.325774 15H10.6742C10.7658 15 10.8533 14.9632 10.915 14.8993C10.9767 14.8355 11.0069 14.7492 10.9987 14.6631L10.6389 10.9655C10.4452 8.97725 9.0378 7.37755 7.1432 6.78112Z" fill="#333333"/>
</svg>
