<svg width="7" height="6" viewBox="0 0 7 6" fill="none" xmlns="http://www.w3.org/2000/svg">
<path d="M4.36463 4.51961C4.27659 4.67068 4.15048 4.79603 3.99888 4.88315C3.84728 4.97027 3.67548 5.01611 3.50063 5.01611C3.32578 5.01611 3.15398 4.97027 3.00238 4.88315C2.85078 4.79603 2.72467 4.67068 2.63663 4.51961L0.877631 1.50061C0.789948 1.34873 0.743744 1.17648 0.743655 1.00111C0.743566 0.825746 0.789595 0.65344 0.877123 0.501481C0.964652 0.349522 1.0906 0.223251 1.24234 0.135338C1.39408 0.0474248 1.56627 0.000959873 1.74163 0.000605106L5.25963 0.000605106C5.435 0.000959873 5.60718 0.0474248 5.75892 0.135338C5.91066 0.223251 6.03661 0.349522 6.12414 0.501481C6.21167 0.65344 6.2577 0.825746 6.25761 1.00111C6.25752 1.17648 6.21131 1.34873 6.12363 1.50061L4.36463 4.51961Z" fill="#333333"/>
</svg>
