<svg width="13" height="15" viewBox="0 0 13 15" fill="none" xmlns="http://www.w3.org/2000/svg">
<path d="M12.6115 3.86118C12.5931 3.46627 12.5931 3.08974 12.5931 2.71322C12.5949 2.64169 12.5821 2.57055 12.5555 2.50411C12.529 2.43767 12.4892 2.37732 12.4386 2.32672C12.388 2.27613 12.3277 2.23634 12.2612 2.20979C12.1948 2.18323 12.1236 2.17046 12.0521 2.17224C11.0682 2.21939 10.0851 2.06426 9.16357 1.71644C8.24202 1.36863 7.40159 0.835514 6.69421 0.150048C6.59168 0.0536615 6.45625 0 6.31552 0C6.1748 0 6.03937 0.0536615 5.93684 0.150048C5.22945 0.8367 4.38865 1.37085 3.46649 1.71943C2.54433 2.06801 1.56043 2.2236 0.575707 2.17657C0.504178 2.17478 0.433034 2.18756 0.366594 2.21412C0.300153 2.24067 0.239802 2.28046 0.189208 2.33105C0.138614 2.38164 0.0988318 2.44199 0.0722756 2.50843C0.0457194 2.57487 0.0329432 2.64602 0.0347249 2.71755C0.0347249 3.09407 0.0347267 3.47492 0.0163333 3.86551C-0.0550763 7.63075 -0.163271 12.7939 6.13051 14.9643L6.31011 15L6.48972 14.9643C12.7673 12.7895 12.6829 7.64373 12.6115 3.86118ZM5.88707 9.07841C5.78285 9.16994 5.64924 9.22101 5.51054 9.22231H5.49215C5.42021 9.22098 5.34939 9.20426 5.28444 9.17328C5.2195 9.1423 5.16194 9.09778 5.11563 9.04271L3.4494 7.1958L4.25655 6.47845L5.56572 7.93045L8.4708 5.16928L9.20545 5.95803L5.88707 9.07841Z" fill="#333333"/>
</svg>
