<svg width="20" height="20" viewBox="0 0 20 20" fill="none" xmlns="http://www.w3.org/2000/svg">
<path fill-rule="evenodd" clip-rule="evenodd" d="M10.2558 0.0951892L13.1776 2.62644C13.3407 2.76769 13.3583 3.01441 13.2171 3.17745C13.1398 3.2666 13.031 3.3123 12.9216 3.3123L12.9183 3.31214L12.9218 3.32136H4.92188V8.55449C4.92188 8.77023 4.74699 8.94511 4.53125 8.94511C4.31551 8.94511 4.14062 8.77023 4.14062 8.55449V2.9307C4.14062 2.71495 4.31551 2.54007 4.53125 2.54007H11.8849L9.9993 0.906556L8.84867 1.89738C8.77492 1.96089 8.68422 1.99199 8.59395 1.99199C8.48414 1.99199 8.37504 1.94597 8.29777 1.85624C8.15699 1.69277 8.17539 1.44613 8.33887 1.30535L9.74512 0.0944079L9.74543 0.0947204C9.88984 -0.0298499 10.1073 -0.0334437 10.2558 0.0951892ZM19.9252 8.54315C19.9758 8.61261 19.9996 8.69311 19.9996 8.77288L20 8.77292V19.609C20 19.8248 19.8251 19.9996 19.6094 19.9996H0.390625C0.174883 19.9996 0 19.8248 0 19.609V8.77292C0 8.65093 0.0559766 8.54206 0.143594 8.47042L0.144063 8.46999L2.74113 6.22394C2.90348 6.08186 3.15023 6.09827 3.29234 6.26061C3.43441 6.42296 3.41801 6.66976 3.25566 6.81183L1.03289 8.7571L7.83805 13.7079L9.7702 12.3023C9.90719 12.2026 10.0928 12.2026 10.2298 12.3023L12.162 13.7079L15.0781 11.5864V9.99968C15.0781 9.78393 15.253 9.60905 15.4688 9.60905C15.6845 9.60905 15.8594 9.78393 15.8594 9.99968V11.018L18.9841 8.74479L17.7675 7.68011C17.7339 7.65073 17.707 7.61675 17.686 7.58011C17.3429 7.57097 17.0333 7.42589 16.8091 7.19659C16.5287 7.36901 16.2055 7.46183 15.8703 7.46183C14.8795 7.46183 14.0734 6.65573 14.0734 5.66495C14.0734 4.67417 14.8795 3.86808 15.8703 3.86808C16.331 3.86808 16.7692 4.04253 17.1043 4.35929C17.1823 4.43308 17.2265 4.53573 17.2265 4.64315V5.7662V6.30597C17.2265 6.57823 17.448 6.79972 17.7203 6.79972C17.9926 6.79972 18.2141 6.57823 18.2141 6.30597V5.66495C18.2141 4.37261 17.1627 3.3212 15.8703 3.3212C14.578 3.3212 13.5266 4.37261 13.5266 5.66495C13.5266 6.95729 14.578 8.0087 15.8703 8.0087C16.0861 8.0087 16.2609 8.18358 16.2609 8.39933C16.2609 8.61507 16.0861 8.78995 15.8703 8.78995C14.1472 8.78995 12.7453 7.38808 12.7453 5.66495C12.7453 3.94183 14.1472 2.53995 15.8703 2.53995C17.5934 2.53995 18.9953 3.94183 18.9953 5.66495V6.30597C18.9953 6.70706 18.809 7.06526 18.5185 7.29917L19.8666 8.47897L19.8664 8.47913C19.8879 8.49792 19.9077 8.51913 19.9252 8.54315ZM16.4453 6.30601V5.76624V4.828C16.277 4.71194 16.0777 4.64933 15.8704 4.64933C15.3104 4.64933 14.8547 5.10495 14.8547 5.66495C14.8547 6.22495 15.3104 6.68058 15.8704 6.68058C16.0777 6.68058 16.277 6.61796 16.4453 6.5019V6.30601ZM7.17406 14.191L0.78125 9.54014V18.8418L7.17406 14.191ZM10 13.1012L1.59156 19.2184H18.4084L10 13.1012ZM12.8259 14.191L19.2188 18.8418V9.54014L12.8259 14.191ZM10.0544 6.48438H6.14911C5.93337 6.48438 5.75849 6.65926 5.75849 6.875C5.75849 7.09074 5.93337 7.26562 6.14911 7.26562H10.0544C10.2702 7.26562 10.445 7.09074 10.445 6.875C10.445 6.65926 10.2702 6.48438 10.0544 6.48438ZM6.14911 4.53125H10C10.2158 4.53125 10.3906 4.70613 10.3906 4.92188C10.3906 5.13762 10.2158 5.3125 10 5.3125H6.14911C5.93337 5.3125 5.75849 5.13762 5.75849 4.92188C5.75849 4.70613 5.93337 4.53125 6.14911 4.53125ZM4.80742 9.85389C4.73477 9.78123 4.63398 9.73944 4.53125 9.73944C4.42852 9.73944 4.32773 9.78123 4.25508 9.85389C4.18242 9.92655 4.14062 10.0273 4.14062 10.1301C4.14062 10.2332 4.18242 10.3336 4.25508 10.4062C4.32773 10.4793 4.42852 10.5207 4.53125 10.5207C4.63398 10.5207 4.73477 10.4793 4.80742 10.4062C4.88008 10.3336 4.92188 10.2332 4.92188 10.1301C4.92188 10.0273 4.88008 9.92655 4.80742 9.85389ZM11.875 8.40953H12.6402C12.8559 8.40953 13.0308 8.58442 13.0308 8.80016C13.0308 9.0159 12.8559 9.19078 12.6402 9.19078H11.875C11.6593 9.19078 11.4844 9.0159 11.4844 8.80016C11.4844 8.58442 11.6593 8.40953 11.875 8.40953ZM10.1489 8.40953H10.1446C9.92884 8.40953 9.75396 8.58442 9.75396 8.80016C9.75396 9.0159 9.92884 9.19078 10.1446 9.19078H10.1489C10.3646 9.19078 10.5395 9.0159 10.5395 8.80016C10.5395 8.58442 10.3646 8.40953 10.1489 8.40953ZM6.14716 8.40953H8.28126C8.497 8.40953 8.67188 8.58442 8.67188 8.80016C8.67188 9.0159 8.497 9.19078 8.28126 9.19078H6.14716C5.93141 9.19078 5.75653 9.0159 5.75653 8.80016C5.75653 8.58442 5.93141 8.40953 6.14716 8.40953Z" fill="white"/>
</svg>
