<svg width="20" height="20" viewBox="0 0 20 20" fill="none" xmlns="http://www.w3.org/2000/svg">
<path fill-rule="evenodd" clip-rule="evenodd" d="M5.53925 10.6664C5.53925 8.03954 7.53906 5.902 10.0003 5.902C12.459 5.902 14.4588 8.03949 14.4588 10.6664C14.4588 13.2938 12.459 15.4304 10.0003 15.4304C7.53902 15.4304 5.53925 13.2938 5.53925 10.6664ZM0.115374 10.2119C-0.038458 10.5091 -0.038458 10.8236 0.115374 11.1212C2.11254 14.953 5.89993 17.3333 10.0003 17.3333C14.098 17.3333 17.8855 14.953 19.8826 11.1212C20.0391 10.8236 20.0391 10.5091 19.8826 10.2119C17.8855 6.38008 14.0981 4 10.0003 4C5.89993 4 2.11254 6.38008 0.115374 10.2119ZM10.0003 7.4634C8.34534 7.4634 7.00061 8.9001 7.00061 10.6664C7.00061 12.4326 8.34529 13.8694 10.0003 13.8694C11.6527 13.8694 12.9974 12.4327 12.9974 10.6664C12.9974 8.9001 11.6527 7.4634 10.0003 7.4634Z" fill="#D2BCFF"/>
</svg>
