<svg width="20" height="20" viewBox="0 0 20 20" fill="none" xmlns="http://www.w3.org/2000/svg">
<path fill-rule="evenodd" clip-rule="evenodd" d="M16.4578 3C16.6323 3 16.7998 3.06933 16.9232 3.19274C17.0466 3.3162 17.116 3.48361 17.116 3.65817C17.116 3.83273 17.0466 4.00014 16.9232 4.1236L3.757 17.2898C3.69628 17.3527 3.62363 17.4028 3.54332 17.4373C3.463 17.4718 3.37662 17.49 3.28921 17.4908C3.2018 17.4915 3.11511 17.4749 3.03421 17.4418C2.9533 17.4087 2.8798 17.3598 2.81799 17.298C2.75618 17.2362 2.7073 17.1627 2.6742 17.0817C2.6411 17.0008 2.62444 16.9142 2.6252 16.8268C2.62596 16.7393 2.64412 16.653 2.67862 16.5726C2.71312 16.4923 2.76328 16.4197 2.82615 16.359L4.6319 14.5532C2.93104 13.5059 1.41364 12.1864 0.140244 10.6475C0.0493801 10.5316 0 10.3885 0 10.2413C0 10.094 0.0493801 9.95099 0.140244 9.8351C0.316672 9.60996 4.52525 4.31648 9.87468 4.31648C11.272 4.33903 12.6472 4.66874 13.9029 5.28222L15.9924 3.19274C16.1158 3.06933 16.2832 3 16.4578 3ZM7.54836 7.91495C6.9313 8.53201 6.58418 9.36862 6.58313 10.2413C6.58768 10.8831 6.78391 11.5089 7.14664 12.0385L11.6719 7.51324C11.1423 7.1505 10.5165 6.95427 9.87468 6.94972C9.00203 6.95077 8.16542 7.29789 7.54836 7.91495ZM16.4919 7.10458C17.7433 8.01463 18.8749 9.07897 19.8598 10.2724C19.9506 10.3883 20 10.5313 20 10.6786C20 10.8258 19.9506 10.9688 19.8598 11.0847C19.6834 11.3099 15.4748 16.6033 10.1253 16.6033C9.21096 16.5953 8.30327 16.4466 7.43417 16.1623L9.67243 13.924C9.82212 13.9501 9.97347 13.9655 10.1253 13.9701C10.998 13.9691 11.8346 13.6219 12.4517 13.0049C13.0687 12.3878 13.4159 11.5512 13.4169 10.6786C13.4123 10.5267 13.3969 10.3753 13.3708 10.2256L16.4919 7.10458Z" fill="#D2BCFF"/>
</svg>
