  <svg
    width="24"
    height="24"
    viewBox="0 0 24 24"
    fill="none"
    xmlns="http://www.w3.org/2000/svg"
  >
    <path
      fill-rule="evenodd"
      clip-rule="evenodd"
      d="M2.12277 5.16C3.75927 5.88 5.47227 6.402 7.21977 6.744C7.94877 4.3155 9.20277 2.016 10.9638 0C7.29777 0.315 4.10427 2.2815 2.12277 5.16ZM16.7769 6.744C16.0479 4.3155 14.7939 2.016 13.0329 0C16.6989 0.315 19.8939 2.2815 21.8739 5.16C20.2389 5.8815 18.5259 6.402 16.7769 6.744ZM11.9986 1.10045C10.4806 2.86745 9.38705 4.86695 8.72405 6.97895C10.8976 7.26545 13.1011 7.26545 15.2731 6.97895C14.6101 4.86845 13.5166 2.86745 11.9986 1.10045ZM22.6551 6.46708L22.5771 6.50158C20.8281 7.28008 19.0116 7.84558 17.1486 8.21758C17.6751 10.7151 17.6736 13.2951 17.1456 15.7911C19.0086 16.1616 20.8341 16.7226 22.5756 17.4981L22.6521 17.5326C23.5086 15.8751 23.9991 13.9971 23.9991 12.0006C23.9991 10.0041 23.5086 8.12607 22.6551 6.46708ZM8.72405 17.0243C9.38705 19.1348 10.4806 21.1343 11.9986 22.9013C13.5166 21.1343 14.6116 19.1348 15.2731 17.0243C13.0996 16.7363 10.8976 16.7378 8.72405 17.0243ZM12.0003 8.73533C13.2393 8.73533 14.4573 8.61983 15.6633 8.45033C16.1703 10.7933 16.1688 13.2173 15.6603 15.5603C13.2318 15.2228 10.7673 15.2228 8.33878 15.5603C7.83028 13.2173 7.83028 10.7933 8.33578 8.45033C9.54178 8.61833 10.7598 8.73533 12.0003 8.73533ZM1.425 6.50241C3.1725 7.28091 4.9875 7.84491 6.8505 8.21841C6.324 10.7159 6.324 13.2959 6.8535 15.7919C4.9905 16.1609 3.165 16.7219 1.425 17.4989L1.347 17.5334C0.4905 15.8744 0 13.9964 0 11.9999C0 10.0034 0.4905 8.12541 1.347 6.46791L1.425 6.50241ZM7.21977 17.257C5.47077 17.5975 3.75777 18.1195 2.12277 18.8395C4.10427 21.718 7.29777 23.6845 10.9638 23.9995C9.20277 21.9835 7.94877 19.684 7.21977 17.257ZM13.0329 23.9999C14.7939 21.9839 16.0494 19.6844 16.7769 17.2559C18.5259 17.5979 20.2389 18.1184 21.8739 18.8399C19.8939 21.7184 16.6989 23.6849 13.0329 23.9999Z"
      fill="url(#paint0_linear_2850_3062)"
    />
    <defs>
      <linearGradient
        id="paint0_linear_2850_3062"
        x1="0"
        y1="11.9999"
        x2="23.9991"
        y2="11.9999"
        gradientUnits="userSpaceOnUse"
      >
        <stop stop-color="#874EFF" />
        <stop offset="1" stop-color="#6895FF" />
      </linearGradient>
    </defs>
  </svg>